<svg width="16" height="16" viewBox="0 0 16 16" fill="none" xmlns="http://www.w3.org/2000/svg">
<path d="M13.4553 4.32604L2.13121 15.6501C1.89795 15.8834 1.60106 16 1.24056 16C0.880053 16 0.583168 15.8834 0.349901 15.6501C0.116634 15.4168 0 15.1199 0 14.7594C0 14.3989 0.116634 14.1021 0.349901 13.8688L11.674 2.54473H2.00398C1.64347 2.54473 1.34129 2.4228 1.09742 2.17893C0.853545 1.93506 0.73161 1.63287 0.73161 1.27237C0.73161 0.911862 0.853545 0.609675 1.09742 0.365805C1.34129 0.121935 1.64347 0 2.00398 0H14.7276C15.0881 0 15.3903 0.121935 15.6342 0.365805C15.8781 0.609675 16 0.911862 16 1.27237V13.996C16 14.3565 15.8781 14.6587 15.6342 14.9026C15.3903 15.1465 15.0881 15.2684 14.7276 15.2684C14.3671 15.2684 14.0649 15.1465 13.8211 14.9026C13.5772 14.6587 13.4553 14.3565 13.4553 13.996V4.32604Z" fill="#2F2E2E"/>
</svg>
