<svg width="52" height="52" viewBox="0 0 52 52" fill="none" xmlns="http://www.w3.org/2000/svg">
<rect width="52" height="52" rx="10" fill="white"/>
<path d="M26 20.4404V23.7704" stroke="#ADA7A7" stroke-width="1.5" stroke-miterlimit="10" stroke-linecap="round"/>
<path d="M26.0209 16C22.3409 16 19.3609 18.98 19.3609 22.66V24.76C19.3609 25.44 19.0809 26.46 18.7309 27.04L17.4609 29.16C16.6809 30.47 17.2209 31.93 18.6609 32.41C23.4409 34 28.6109 34 33.3909 32.41C34.7409 31.96 35.3209 30.38 34.5909 29.16L33.3209 27.04C32.9709 26.46 32.6909 25.43 32.6909 24.76V22.66C32.6809 19 29.6809 16 26.0209 16Z" stroke="#ADA7A7" stroke-width="1.5" stroke-miterlimit="10" stroke-linecap="round"/>
<path d="M29.3299 32.8203C29.3299 34.6503 27.8299 36.1503 25.9999 36.1503C25.0899 36.1503 24.2499 35.7703 23.6499 35.1703C23.0499 34.5703 22.6699 33.7303 22.6699 32.8203" stroke="#ADA7A7" stroke-width="1.5" stroke-miterlimit="10"/>
</svg>
