<svg width="27" height="26" viewBox="0 0 27 26" fill="none" xmlns="http://www.w3.org/2000/svg">
<path d="M13.4993 2.16699C7.51935 2.16699 2.66602 7.02033 2.66602 13.0003C2.66602 18.9803 7.51935 23.8337 13.4993 23.8337C19.4793 23.8337 24.3327 18.9803 24.3327 13.0003C24.3327 7.02033 19.4793 2.16699 13.4993 2.16699ZM17.8652 11.0503L12.806 16.0986C12.6543 16.2611 12.4485 16.337 12.2318 16.337C12.026 16.337 11.8202 16.2611 11.6577 16.0986L9.13352 13.5745C8.81935 13.2604 8.81935 12.7403 9.13352 12.4261C9.44768 12.112 9.96768 12.112 10.2818 12.4261L12.2318 14.3762L16.7169 9.90201C17.031 9.57701 17.551 9.57701 17.8652 9.90201C18.1793 10.2162 18.1793 10.7253 17.8652 11.0503Z" fill="#FE711F"/>
</svg>
