<svg width="22" height="22" viewBox="0 0 22 22" fill="none" xmlns="http://www.w3.org/2000/svg">
<path d="M10.9993 0.166992C5.01935 0.166992 0.166016 5.02033 0.166016 11.0003C0.166016 16.9803 5.01935 21.8337 10.9993 21.8337C16.9793 21.8337 21.8327 16.9803 21.8327 11.0003C21.8327 5.02033 16.9793 0.166992 10.9993 0.166992ZM15.3652 9.05034L10.306 14.0986C10.1543 14.2611 9.9485 14.337 9.73183 14.337C9.526 14.337 9.32017 14.2611 9.15767 14.0986L6.63352 11.5745C6.31935 11.2604 6.31935 10.7403 6.63352 10.4261C6.94768 10.112 7.46768 10.112 7.78185 10.4261L9.73183 12.3762L14.2169 7.90201C14.531 7.57701 15.051 7.57701 15.3652 7.90201C15.6793 8.21618 15.6793 8.72534 15.3652 9.05034Z" fill="white" fill-opacity="0.31"/>
</svg>
