<svg width="46" height="46" viewBox="0 0 46 46" fill="none" xmlns="http://www.w3.org/2000/svg">
<rect width="46" height="46" rx="23" fill="#FE711F" fill-opacity="0.16"/>
<path d="M21.7418 14.8588L17.5835 16.4255C16.6251 16.7838 15.8418 17.9171 15.8418 18.9338V25.1255C15.8418 26.1088 16.4918 27.4005 17.2835 27.9921L20.8668 30.6671C22.0418 31.5505 23.9751 31.5505 25.1501 30.6671L28.7335 27.9921C29.5251 27.4005 30.1751 26.1088 30.1751 25.1255V18.9338C30.1751 17.9088 29.3918 16.7755 28.4335 16.4171L24.2751 14.8588C23.5668 14.6005 22.4335 14.6005 21.7418 14.8588Z" stroke="#FE711F" stroke-width="1.5" stroke-linecap="round" stroke-linejoin="round"/>
<path d="M23.0007 23.4163C23.9211 23.4163 24.6673 22.6701 24.6673 21.7497C24.6673 20.8292 23.9211 20.083 23.0007 20.083C22.0802 20.083 21.334 20.8292 21.334 21.7497C21.334 22.6701 22.0802 23.4163 23.0007 23.4163Z" stroke="#FE711F" stroke-width="1.5" stroke-miterlimit="10" stroke-linecap="round" stroke-linejoin="round"/>
<path d="M23 23.417V25.917" stroke="#FE711F" stroke-width="1.5" stroke-miterlimit="10" stroke-linecap="round" stroke-linejoin="round"/>
</svg>
