<svg width="46" height="46" viewBox="0 0 46 46" fill="none" xmlns="http://www.w3.org/2000/svg">
<rect width="46" height="46" rx="23" fill="#FE711F" fill-opacity="0.16"/>
<path d="M18 21.3337V19.667C18 16.9087 18.8333 14.667 23 14.667C27.1667 14.667 28 16.9087 28 19.667V21.3337" stroke="#FE711F" stroke-width="1.5" stroke-linecap="round" stroke-linejoin="round"/>
<path d="M22.9993 28.4167C24.1499 28.4167 25.0827 27.4839 25.0827 26.3333C25.0827 25.1827 24.1499 24.25 22.9993 24.25C21.8488 24.25 20.916 25.1827 20.916 26.3333C20.916 27.4839 21.8488 28.4167 22.9993 28.4167Z" stroke="#FE711F" stroke-width="1.5" stroke-linecap="round" stroke-linejoin="round"/>
<path d="M27.166 31.333H18.8327C15.4993 31.333 14.666 30.4997 14.666 27.1663V25.4997C14.666 22.1663 15.4993 21.333 18.8327 21.333H27.166C30.4993 21.333 31.3327 22.1663 31.3327 25.4997V27.1663C31.3327 30.4997 30.4993 31.333 27.166 31.333Z" stroke="#FE711F" stroke-width="1.5" stroke-linecap="round" stroke-linejoin="round"/>
</svg>
