<svg width="16" height="9" viewBox="0 0 16 9" fill="none" xmlns="http://www.w3.org/2000/svg">
<path d="M6.98216 8.44047L0.297418 1.75578C0.205209 1.66357 0.132586 1.56061 0.0795519 1.4469C0.0265173 1.33316 0 1.2113 0 1.08133C0 0.821394 0.0878968 0.595557 0.263689 0.403819C0.439445 0.212082 0.671117 0.116211 0.958706 0.116211H15.0413C15.3289 0.116211 15.5606 0.213001 15.7363 0.406577C15.9121 0.600189 16 0.826045 16 1.08415C16 1.14871 15.9007 1.37273 15.7022 1.7562L9.01784 8.44052C8.86418 8.59418 8.70534 8.70636 8.54132 8.77708C8.37727 8.84779 8.19683 8.88315 8 8.88315C7.80317 8.88315 7.62273 8.84779 7.45868 8.77708C7.29466 8.70636 7.13582 8.59416 6.98216 8.44047Z" fill="#FCFCFC"/>
</svg>
