<svg width="40" height="41" viewBox="0 0 40 41" fill="none" xmlns="http://www.w3.org/2000/svg">
<circle cx="20" cy="20.0723" r="20" fill="#FCFCFC"/>
<path d="M14.2778 28.0723C13.7889 28.0723 13.3704 27.8982 13.0222 27.55C12.6741 27.2019 12.5 26.7834 12.5 26.2945V13.85C12.5 13.3612 12.6741 12.9426 13.0222 12.5945C13.3704 12.2463 13.7889 12.0723 14.2778 12.0723H26.7222C27.2111 12.0723 27.6296 12.2463 27.9778 12.5945C28.3259 12.9426 28.5 13.3612 28.5 13.85V26.2945C28.5 26.7834 28.3259 27.2019 27.9778 27.55C27.6296 27.8982 27.2111 28.0723 26.7222 28.0723H14.2778ZM16.0556 24.5167H24.9444C25.1222 24.5167 25.2556 24.4352 25.3444 24.2723C25.4333 24.1093 25.4185 23.9537 25.3 23.8056L22.8556 20.5389C22.7667 20.4204 22.6481 20.3612 22.5 20.3612C22.3519 20.3612 22.2333 20.4204 22.1444 20.5389L19.8333 23.6278L18.1889 21.4278C18.1 21.3093 17.9815 21.25 17.8333 21.25C17.6852 21.25 17.5667 21.3093 17.4778 21.4278L15.7 23.8056C15.5815 23.9537 15.5667 24.1093 15.6556 24.2723C15.7444 24.4352 15.8778 24.5167 16.0556 24.5167Z" fill="#2F2E2E"/>
</svg>
