<svg width="15" height="17" viewBox="0 0 15 17" fill="none" xmlns="http://www.w3.org/2000/svg">
<path d="M7.50034 15.262C9.19784 13.7424 10.4968 12.2849 11.3973 10.8894C12.2978 9.49393 12.748 8.27169 12.748 7.2227C12.748 5.64089 12.2455 4.34051 11.2405 3.32156C10.2354 2.3026 8.98872 1.79312 7.50034 1.79312C6.01196 1.79312 4.76525 2.3026 3.76021 3.32156C2.75517 4.34051 2.25265 5.64089 2.25265 7.2227C2.25265 8.27169 2.70288 9.49393 3.60336 10.8894C4.50385 12.2849 5.80284 13.7424 7.50034 15.262ZM7.50034 16.5C7.33126 16.5 7.16218 16.4708 6.9931 16.4124C6.82403 16.354 6.67107 16.2636 6.53424 16.1413C5.75558 15.4238 5.02698 14.6849 4.34842 13.9246C3.66987 13.1643 3.08002 12.4042 2.57889 11.6445C2.07775 10.8847 1.68119 10.1316 1.38919 9.3852C1.09718 8.63878 0.951172 7.91795 0.951172 7.2227C0.951172 5.22042 1.59886 3.5994 2.89424 2.35964C4.1896 1.11988 5.72497 0.5 7.50034 0.5C9.27571 0.5 10.8111 1.11988 12.1064 2.35964C13.4018 3.5994 14.0495 5.22042 14.0495 7.2227C14.0495 7.91795 13.9035 8.63739 13.6115 9.38104C13.3195 10.1247 12.9243 10.8778 12.426 11.6403C11.9276 12.4028 11.3392 13.1629 10.6606 13.9204C9.98205 14.6779 9.25344 15.4154 8.47477 16.1329C8.33995 16.2553 8.18674 16.3471 8.01515 16.4082C7.84354 16.4694 7.67193 16.5 7.50034 16.5ZM7.50181 8.62597C7.93355 8.62597 8.30265 8.47225 8.60911 8.16481C8.91556 7.85737 9.06879 7.48778 9.06879 7.05604C9.06879 6.62431 8.91507 6.25521 8.60763 5.94875C8.30019 5.6423 7.9306 5.48907 7.49886 5.48907C7.06713 5.48907 6.69803 5.64279 6.39157 5.95023C6.08512 6.25767 5.93189 6.62726 5.93189 7.05899C5.93189 7.49073 6.08561 7.85983 6.39305 8.16629C6.70049 8.47274 7.07008 8.62597 7.50181 8.62597Z" fill="#FCFCFC"/>
</svg>
