<svg width="40" height="41" viewBox="0 0 40 41" fill="none" xmlns="http://www.w3.org/2000/svg">
<circle cx="20" cy="20.0723" r="20" fill="#FCFCFC"/>
<path d="M15.7 14.4723C15.4733 14.4723 15.2833 14.5489 15.13 14.7023C14.9767 14.8556 14.9 15.0456 14.9 15.2723C14.9 15.4989 14.9767 15.6889 15.13 15.8423C15.2833 15.9956 15.4733 16.0723 15.7 16.0723C15.9267 16.0723 16.1167 15.9956 16.27 15.8423C16.4233 15.6889 16.5 15.4989 16.5 15.2723C16.5 15.0456 16.4233 14.8556 16.27 14.7023C16.1167 14.5489 15.9267 14.4723 15.7 14.4723ZM18.9 24.8723L17.88 27.3323C17.8 27.5323 17.6567 27.6756 17.45 27.7623C17.2433 27.8489 17.04 27.8523 16.84 27.7723C16.64 27.6923 16.4967 27.5489 16.41 27.3423C16.3233 27.1356 16.32 26.9323 16.4 26.7323L17.26 24.6523C15.8467 24.2789 14.7 23.5189 13.82 22.3723C12.94 21.2256 12.5 19.9256 12.5 18.4723V15.2723C12.5 14.3923 12.8133 13.6389 13.44 13.0123C14.0667 12.3856 14.82 12.0723 15.7 12.0723C15.9933 12.0723 16.2733 12.1223 16.54 12.2223C16.8067 12.3223 17.0733 12.4256 17.34 12.5323L21.16 14.0923C21.3333 14.1589 21.4167 14.2823 21.41 14.4623C21.4033 14.6423 21.3133 14.7656 21.14 14.8323L18.9 15.6723V16.8723L25.18 20.8723H18.9C18.5133 20.8723 18.1733 20.7523 17.88 20.5123C17.5867 20.2723 17.4067 19.9656 17.34 19.5923C17.3 19.4056 17.2067 19.2456 17.06 19.1123C16.9133 18.9789 16.74 18.9123 16.54 18.9123C16.3133 18.9123 16.1233 18.9889 15.97 19.1423C15.8167 19.2956 15.74 19.4856 15.74 19.7123C15.74 19.9789 15.82 20.2756 15.98 20.6023C16.14 20.9289 16.3067 21.1856 16.48 21.3723C16.7733 21.7189 17.13 21.9889 17.55 22.1823C17.97 22.3756 18.42 22.4723 18.9 22.4723H27.7L28.32 25.6123C28.36 25.8389 28.31 26.0389 28.17 26.2123C28.03 26.3856 27.8467 26.4723 27.62 26.4723H27.34C27.1933 26.4723 27.0667 26.4356 26.96 26.3623C26.8533 26.2889 26.7667 26.1923 26.7 26.0723L26.1 24.8723H22.1V27.2723C22.1 27.4989 22.0233 27.6889 21.87 27.8423C21.7167 27.9956 21.5267 28.0723 21.3 28.0723C21.0733 28.0723 20.8833 27.9956 20.73 27.8423C20.5767 27.6889 20.5 27.4989 20.5 27.2723V24.8723H18.9Z" fill="#2F2E2E"/>
</svg>
