<svg width="40" height="41" viewBox="0 0 40 41" fill="none" xmlns="http://www.w3.org/2000/svg">
<circle cx="20" cy="20.0723" r="20" fill="#FCFCFC"/>
<path d="M23.9222 20.45C24.0556 20.3612 24.1222 20.2352 24.1222 20.0723C24.1222 19.9093 24.0556 19.7834 23.9222 19.6945L18.9667 16.5167C18.8185 16.413 18.6667 16.4056 18.5111 16.4945C18.3556 16.5834 18.2778 16.7167 18.2778 16.8945V23.25C18.2778 23.4278 18.3556 23.5612 18.5111 23.65C18.6667 23.7389 18.8185 23.7315 18.9667 23.6278L23.9222 20.45ZM14.2778 28.0723C13.7889 28.0723 13.3704 27.8982 13.0222 27.55C12.6741 27.2019 12.5 26.7834 12.5 26.2945V13.85C12.5 13.3612 12.6741 12.9426 13.0222 12.5945C13.3704 12.2463 13.7889 12.0723 14.2778 12.0723H26.7222C27.2111 12.0723 27.6296 12.2463 27.9778 12.5945C28.3259 12.9426 28.5 13.3612 28.5 13.85V26.2945C28.5 26.7834 28.3259 27.2019 27.9778 27.55C27.6296 27.8982 27.2111 28.0723 26.7222 28.0723H14.2778Z" fill="#2F2E2E"/>
</svg>
